<svg width="512" height="512" xmlns="http://www.w3.org/2000/svg">
  <g id="svg_18">
   <path stroke-width="4" stroke="#000000" fill="#a8a8a8" d="m256,104.16406l0,37a111,111 0 0 1 93.82733,51.69206l62.55157,-39.53864a185,185 0 0 0 -156.37891,-86.15345l0,73.99999" id="svg_16"/>
   <path stroke-width="4" stroke="#000000" fill="#f4f4f4" d="m390.89105,191.26738l-33.72278,15.22417a111,111 0 0 1 -1.88467,95.30887l66.18906,33.09088a185,185 0 0 0 3.14114,-158.84808l-67.44553,30.44833" id="svg_15"/>
   <path stroke-width="4" stroke="#000000" fill="#a5a5a5" d="m377.87912,336.12524l-30.46979,-20.9903a111,111 0 0 1 -82.54953,47.67496l5.90652,73.76392a185,185 0 0 0 137.58258,-79.45828l-60.93958,-41.98059" id="svg_14"/>
   <path stroke-width="4" stroke="#000000" fill="#bababa" d="m247.1662,399.90018l2.20844,-36.93402a111,111 0 0 1 -83.49472,-45.99954l-60.08005,43.20169a185,185 0 0 0 139.1579,76.66592l4.41687,-73.86807" id="svg_13"/>
   <path stroke-width="4" stroke="#000000" fill="#dbdbdb" d="m124.98425,321.00354l32.75394,-17.20987a111,111 0 0 1 -3.80746,-95.25142l-68.04617,-29.08122a185,185 0 0 0 6.34576,158.75238l65.5079,-34.41974" id="svg_12"/>
   <path stroke-width="4" stroke="#000000" fill="#9e9e9e" d="m129.32672,175.62729l31.66832,19.13419a111,111 0 0 1 79.55675,-52.51718l-10.2988,-73.27983a185,185 0 0 0 -132.59459,87.52861l63.33664,38.26839" id="svg_11"/>
   <path stroke-width="4" stroke="#000000" fill="red" fill-opacity="0.6" d="m256,104.16406l0,37a111,111 0 0 1 93.82733,51.69206l62.55157,-39.53864a185,185 0 0 0 -156.37891,-86.15345l0,73.99999" id="svg_10"/>
  </g>
</svg>